# xmcd CD database file
#
# Track frame offsets:
#	150
#	17172
#	30123
#	46596
#	61747
#	73963
#	89419
#	106815
#	123921
#	139329
#	156705
#
# Disc length: 2357 seconds
#
# Revision: 2
# Processed by: cddbd v1.5.1PL2 Copyright (c) Steve Scherf et al.
# Submitted via: CDex 1.51
#
DISCID=8e09330b
DTITLE=Tommy Heavenly6 - Tommy Heavenly6
DYEAR=2005
DGENRE=Rock
TTITLE0=2Bfree
TTITLE1=Ready ?
TTITLE2=Wait till I can dream
TTITLE3=fell in love with you
TTITLE4=Wanna be your idol
TTITLE5=+gothic Pink+
TTITLE6=Swear
TTITLE7=Lost my pieces
TTITLE8=GIMME ALL OF YOUR LOVE!!
TTITLE9=LCDD
TTITLE10=Hey my friend
EXTD=YEAR: 2005
EXTT0=
EXTT1=
EXTT2=
EXTT3=
EXTT4=
EXTT5=
EXTT6=
EXTT7=
EXTT8=
EXTT9=
EXTT10=
PLAYORDER=
